<?xml version="1.0" standalone="no"?>
<!DOCTYPE svg PUBLIC "-//W3C//DTD SVG 20010904//EN"
 "http://www.w3.org/TR/2001/REC-SVG-20010904/DTD/svg10.dtd">
<svg version="1.0" xmlns="http://www.w3.org/2000/svg"
 width="600.000000pt" height="600.000000pt" viewBox="0 0 600.000000 600.000000"
 preserveAspectRatio="xMidYMid meet">
<metadata>
Created by potrace 1.14, written by Peter Selinger 2001-2017
</metadata>
<g transform="translate(0.000000,600.000000) scale(0.100000,-0.100000)"
fill="#000000" stroke="none">
<path d="M209 5121 c-1 -3 -2 -198 -3 -433 l-1 -428 65 -1 c36 0 79 -2 95 -4
17 -2 55 -6 85 -9 69 -7 103 -14 135 -26 14 -5 25 -8 25 -5 0 9 113 -35 178
-69 114 -61 157 -111 252 -291 46 -88 94 -179 107 -203 12 -23 23 -48 23 -55
0 -7 -24 -29 -54 -49 -78 -55 -221 -175 -301 -254 -140 -137 -213 -255 -222
-355 -5 -52 -2 -65 34 -141 35 -71 50 -105 58 -128 1 -3 5 -13 9 -22 5 -10 5
-25 2 -34 -3 -8 -2 -13 3 -10 5 3 12 -9 16 -27 4 -17 9 -36 10 -42 15 -53 22
-101 21 -139 0 -25 2 -46 5 -46 9 0 2 -110 -10 -162 -24 -104 -32 -256 -17
-328 16 -77 61 -147 118 -184 15 -10 26 -23 24 -29 -1 -7 -1 -9 1 -4 7 12 43
8 43 -5 0 -6 3 -8 7 -5 3 4 12 2 20 -4 9 -8 13 -8 13 -1 0 6 6 9 13 7 24 -10
107 -11 107 -2 0 5 6 4 14 -2 18 -15 59 -23 51 -10 -4 5 -10 7 -14 5 -4 -3
-13 -1 -21 5 -12 7 -10 9 7 9 12 0 29 3 39 7 12 4 15 3 10 -6 -4 -6 7 -3 25 8
31 19 34 19 53 3 16 -13 18 -14 8 -1 -15 20 -4 33 16 16 13 -9 14 -9 8 1 -4 7
-1 12 8 12 9 0 16 5 16 11 0 6 7 9 15 5 8 -3 15 -1 15 3 0 5 20 21 44 35 24
14 62 46 83 70 43 48 99 155 105 196 2 14 6 30 9 35 4 6 6 25 5 43 -1 22 4 32
14 32 12 1 11 3 -3 11 -17 10 -15 29 4 29 6 0 8 -4 5 -9 -3 -5 6 -9 19 -10 47
-3 55 -4 55 -12 0 -3 9 -9 20 -12 13 -3 18 -10 14 -21 -3 -9 -1 -16 5 -16 6 0
10 3 9 8 -5 12 16 11 34 -3 10 -6 15 -15 10 -20 -4 -4 0 -6 9 -2 21 7 39 -11
32 -32 -4 -13 -3 -13 5 -2 11 16 32 7 32 -15 0 -8 5 -14 10 -14 6 0 10 -5 10
-11 0 -5 -5 -7 -12 -3 -7 4 -8 3 -4 -4 4 -6 14 -8 23 -5 13 5 15 2 9 -12 -4
-11 -4 -16 0 -13 10 11 45 -12 38 -24 -4 -6 -3 -8 3 -5 6 4 30 -3 54 -15 24
-12 50 -23 57 -24 21 -4 36 -20 57 -61 10 -21 49 -94 85 -163 123 -231 207
-390 327 -620 75 -142 160 -302 199 -375 l33 -60 351 -3 351 -2 35 77 c20 43
49 105 64 138 16 33 106 229 200 435 95 206 193 420 219 475 26 55 54 115 62
133 7 17 18 32 22 32 5 0 5 5 2 10 -4 7 4 9 22 7 15 -2 47 1 70 8 23 7 45 10
49 6 4 -3 4 -1 0 6 -4 7 2 18 14 25 11 7 20 18 20 25 0 7 7 13 15 13 8 0 15 5
15 10 0 6 7 10 15 10 8 0 15 -5 15 -12 0 -6 3 -8 6 -5 4 4 1 13 -6 22 -8 9 -8
15 -2 15 6 0 18 7 26 16 10 9 16 11 16 4 0 -7 8 -9 21 -5 16 5 19 4 14 -5 -5
-9 -4 -11 4 -6 16 10 3 29 -16 22 -8 -3 -11 -1 -8 4 5 8 54 34 85 45 27 9 46
20 52 29 4 6 10 7 14 3 4 -3 1 -13 -6 -22 -18 -22 -3 -18 20 5 11 11 15 20 9
20 -5 0 -7 5 -4 11 4 6 9 8 12 5 3 -3 15 0 26 6 16 8 19 8 14 -5 -3 -8 0 -20
6 -26 8 -8 8 -11 0 -11 -7 0 -10 -8 -8 -18 8 -44 28 -109 41 -134 8 -15 14
-30 14 -33 0 -3 6 -13 15 -21 8 -9 12 -20 9 -26 -4 -6 -3 -8 3 -5 6 4 24 -9
42 -28 17 -19 36 -35 42 -35 6 0 8 -10 4 -22 -4 -16 -3 -19 3 -10 8 12 13 12
31 1 11 -8 21 -17 21 -21 0 -5 7 -8 16 -8 9 0 12 -5 8 -12 -5 -8 -2 -9 9 -5
11 4 21 0 29 -12 7 -12 18 -16 31 -13 14 3 18 1 13 -6 -4 -7 -2 -12 6 -12 28
0 97 -33 91 -44 -4 -7 -2 -7 7 1 9 8 20 9 39 2 14 -6 51 -11 81 -13 31 -1 61
-5 68 -10 7 -4 10 -2 7 6 -4 9 4 14 22 16 14 1 34 9 43 17 20 18 34 20 24 3
-4 -7 -3 -8 5 -4 6 4 9 11 6 15 -7 12 30 43 40 34 4 -5 5 -2 1 5 -4 7 -1 23 7
36 14 21 40 99 53 157 6 30 5 193 -2 234 -3 17 -7 107 -9 201 -2 131 0 178 10
198 8 15 10 24 5 21 -17 -11 18 85 48 133 47 73 72 139 72 190 0 134 -193 418
-390 576 -50 40 -188 131 -232 151 l-36 18 36 81 c97 218 250 401 421 504 l71
42 220 0 220 0 -2 433 -3 432 -2792 1 c-1536 0 -2794 -2 -2794 -5z"/>
<path d="M4511 2114 c0 -11 3 -14 6 -6 3 7 2 16 -1 19 -3 4 -6 -2 -5 -13z"/>
<path d="M1596 2105 c-9 -26 -7 -32 5 -12 6 10 9 21 6 23 -2 3 -7 -2 -11 -11z"/>
<path d="M1653 2095 c0 -7 6 -11 14 -8 7 3 13 6 13 8 0 2 -6 5 -13 8 -8 3 -14
-1 -14 -8z"/>
<path d="M4425 2091 c-6 -11 13 -26 22 -17 4 3 1 6 -6 6 -7 0 -9 5 -6 10 3 6
4 10 1 10 -3 0 -7 -4 -11 -9z"/>
<path d="M4385 2080 c-3 -5 -1 -10 4 -10 6 0 11 5 11 10 0 6 -2 10 -4 10 -3 0
-8 -4 -11 -10z"/>
<path d="M1713 2062 c-9 -6 -7 -11 7 -20 12 -7 20 -8 20 -2 0 5 -5 10 -11 10
-5 0 -7 5 -4 10 7 12 4 12 -12 2z"/>
<path d="M4355 2060 c-3 -5 -1 -10 4 -10 6 0 11 5 11 10 0 6 -2 10 -4 10 -3 0
-8 -4 -11 -10z"/>
<path d="M4458 2058 c-9 -5 -6 -7 9 -5 12 2 25 6 28 8 8 9 -23 6 -37 -3z"/>
<path d="M4516 2047 c3 -10 9 -15 12 -12 3 3 0 11 -7 18 -10 9 -11 8 -5 -6z"/>
<path d="M1610 2046 c0 -2 7 -7 16 -10 8 -3 12 -2 9 4 -6 10 -25 14 -25 6z"/>
<path d="M1756 1998 c3 -5 10 -6 15 -3 13 9 11 12 -6 12 -8 0 -12 -4 -9 -9z"/>
<path d="M4300 1999 c0 -5 5 -7 10 -4 6 3 10 8 10 11 0 2 -4 4 -10 4 -5 0 -10
-5 -10 -11z"/>
<path d="M4210 1958 c0 -6 3 -8 7 -5 3 4 14 0 24 -9 11 -10 19 -12 24 -4 4 6
1 9 -7 8 -7 -2 -12 2 -11 7 1 6 -7 12 -18 12 -10 1 -19 -3 -19 -9z"/>
<path d="M1813 1945 c0 -8 4 -12 9 -9 5 3 6 10 3 15 -9 13 -12 11 -12 -6z"/>
<path d="M4190 1930 c-9 -6 -10 -10 -3 -10 6 0 15 5 18 10 8 12 4 12 -15 0z"/>
<path d="M4210 1899 c0 -5 5 -7 10 -4 6 3 10 8 10 11 0 2 -4 4 -10 4 -5 0 -10
-5 -10 -11z"/>
<path d="M4131 1887 c-8 -10 -7 -14 2 -14 8 0 14 6 14 14 0 7 -1 13 -2 13 -2
0 -8 -6 -14 -13z"/>
<path d="M4086 1882 c-3 -5 1 -9 9 -9 8 0 15 4 15 9 0 4 -4 8 -9 8 -6 0 -12
-4 -15 -8z"/>
<path d="M4039 1878 c-5 -18 -6 -38 -1 -34 7 8 12 36 6 36 -2 0 -4 -1 -5 -2z"/>
<path d="M1936 1862 c-3 -5 1 -9 9 -9 8 0 12 4 9 9 -3 4 -7 8 -9 8 -2 0 -6 -4
-9 -8z"/>
<path d="M4095 1851 c-3 -5 -2 -12 3 -15 5 -3 9 1 9 9 0 17 -3 19 -12 6z"/>
<path d="M1990 1820 c0 -5 5 -10 11 -10 5 0 7 5 4 10 -3 6 -8 10 -11 10 -2 0
-4 -4 -4 -10z"/>
<path d="M4016 1818 c3 -4 11 -5 19 -1 21 7 19 12 -4 10 -11 0 -18 -5 -15 -9z"/>
<path d="M4674 1793 c2 -10 -2 -25 -8 -33 -9 -13 -9 -13 6 -2 16 12 18 35 6
48 -4 3 -5 -2 -4 -13z"/>
<path d="M4716 1754 c-5 -14 -4 -15 9 -4 17 14 19 20 6 20 -5 0 -12 -7 -15
-16z"/>
<path d="M4736 1742 c-8 -13 7 -29 27 -29 18 0 13 12 -6 12 -7 1 -11 6 -9 13
2 14 -4 16 -12 4z"/>
<path d="M4790 1716 c0 -2 7 -7 16 -10 8 -3 12 -2 9 4 -6 10 -25 14 -25 6z"/>
<path d="M1360 1700 c-8 -5 -10 -10 -5 -10 6 0 17 5 25 10 8 5 11 10 5 10 -5
0 -17 -5 -25 -10z"/>
<path d="M4895 1658 c3 -11 7 -23 11 -27 4 -3 4 2 1 11 -3 9 -1 18 6 21 6 2 4
6 -5 10 -13 4 -16 1 -13 -15z"/>
<path d="M4820 1666 c0 -2 11 -6 25 -8 13 -3 22 -1 19 3 -5 9 -44 13 -44 5z"/>
<path d="M1266 1638 c3 -5 10 -6 15 -3 13 9 11 12 -6 12 -8 0 -12 -4 -9 -9z"/>
<path d="M1193 1625 c0 -8 4 -12 9 -9 5 3 6 10 3 15 -9 13 -12 11 -12 -6z"/>
<path d="M5001 1633 c-1 -17 16 -25 25 -12 4 7 3 9 -4 5 -5 -3 -13 0 -15 6 -4
9 -6 10 -6 1z"/>
<path d="M4950 1625 c0 -7 30 -13 34 -7 3 4 -4 9 -15 9 -10 1 -19 0 -19 -2z"/>
<path d="M5048 1623 c6 -2 9 -10 6 -15 -4 -7 -2 -8 5 -4 13 9 5 26 -12 25 -9
0 -8 -2 1 -6z"/>
<path d="M5115 1620 c-3 -5 -1 -10 4 -10 6 0 11 5 11 10 0 6 -2 10 -4 10 -3 0
-8 -4 -11 -10z"/>
<path d="M5188 1623 c7 -3 16 -2 19 1 4 3 -2 6 -13 5 -11 0 -14 -3 -6 -6z"/>
<path d="M971 1611 c-8 -5 -20 -7 -28 -4 -7 3 -13 1 -13 -4 0 -5 13 -9 28 -8
16 0 29 5 29 12 0 7 -1 13 -1 13 -1 0 -7 -4 -15 -9z"/>
<path d="M4930 1616 c0 -2 8 -10 18 -17 15 -13 16 -12 3 4 -13 16 -21 21 -21
13z"/>
<path d="M4990 1600 c0 -5 5 -10 11 -10 5 0 7 5 4 10 -3 6 -8 10 -11 10 -2 0
-4 -4 -4 -10z"/>
<path d="M5076 1594 c-3 -9 -11 -12 -18 -8 -7 4 -9 3 -5 -1 12 -14 37 -15 34
-2 -1 7 4 11 11 9 8 -1 11 2 7 8 -9 15 -22 12 -29 -6z"/>
<path d="M5227 1599 c7 -7 15 -10 18 -7 3 3 -2 9 -12 12 -14 6 -15 5 -6 -5z"/>
<path d="M1035 1591 c-3 -5 -2 -12 3 -15 5 -3 9 1 9 9 0 17 -3 19 -12 6z"/>
<path d="M1095 1580 c3 -5 8 -10 11 -10 2 0 4 5 4 10 0 6 -5 10 -11 10 -5 0
-7 -4 -4 -10z"/>
<path d="M955 1571 c-3 -5 -2 -12 3 -15 5 -3 9 1 9 9 0 17 -3 19 -12 6z"/>
</g>
</svg>
